<?xml version="1.0" encoding="UTF-8"?>
<svg width="61px" height="60px" viewBox="0 0 61 60" version="1.1" xmlns="http://www.w3.org/2000/svg" xmlns:xlink="http://www.w3.org/1999/xlink">
    <!-- Generator: Sketch 60 (88103) - https://sketch.com -->
    <title>Group Copy</title>
    <desc>Created with Sketch.</desc>
    <defs>
        <linearGradient x1="28.8244021%" y1="7.77647214%" x2="72.2542469%" y2="93.7484382%" id="linearGradient-1">
            <stop stop-color="#0F6199" offset="0.0607052365%"></stop>
            <stop stop-color="#0978C3" stop-opacity="0.854048295" offset="100%"></stop>
        </linearGradient>
    </defs>
    <g id="Page-1" stroke="none" stroke-width="1" fill="none" fill-rule="evenodd">
        <g id="Artboard" transform="translate(-1317.000000, -1351.000000)">
            <g id="Group-Copy" transform="translate(1317.500000, 1351.000000)">
                <circle id="Oval" fill="url(#linearGradient-1)" cx="30" cy="29.9995355" r="30"></circle>
                <path d="M30.0156089,34.8183813 C30.4052563,34.8183813 30.7481409,34.6936699 31.1221795,34.3196313 L36.3590702,29.2853688 C36.6240381,29.0204008 36.7799035,28.724279 36.7799035,28.3502086 C36.7799035,27.6176765 36.1876279,27.0877407 35.4706728,27.0877407 C35.1121793,27.0877407 34.7537177,27.243606 34.4887498,27.5241509 L32.3223076,29.8308815 L31.3248076,30.9842149 L31.480673,28.6775162 L31.480673,12.5304657 C31.480673,11.7511709 30.8260576,11.0965875 30.0156089,11.0965875 C29.2207052,11.0965875 28.5660898,11.7511709 28.5660898,12.5304657 L28.5660898,28.6775162 L28.7219552,30.9842149 L27.7088783,29.8308815 L25.542436,27.5241509 C25.2930451,27.243606 24.9190065,27.0877407 24.560513,27.0877407 C23.8435579,27.0877407 23.2668913,27.6176765 23.2668913,28.3502086 C23.2668913,28.724279 23.4071477,29.0204008 23.6721156,29.2853688 L28.9090064,34.3196313 C29.2830449,34.6936699 29.6415384,34.8183813 30.0156089,34.8183813 Z M21.0225004,44.9024834 L38.9774996,44.9024834 C42.3596469,44.9024834 44.1052559,43.1568425 44.1052559,39.8214561 L44.1052559,24.5004652 C44.1052559,21.1650807 42.3596469,19.4194717 38.9774996,19.4194717 C37.7937661,19.4194717 36.905966,19.4194717 36.3140993,19.4194717 C35.7991644,19.4194717 34.7639349,19.7452558 34.7692947,20.9794731 C34.7746544,22.2136904 35.8081438,22.5210742 36.3275684,22.5210742 C36.8714206,22.5210742 37.687199,22.5210742 38.7749034,22.5210742 C40.1932047,22.5210742 41.0036854,23.2691832 41.0036854,24.7654331 L41.0036854,39.5409094 C41.0036854,41.0371599 40.1932047,41.7852849 38.7749034,41.7852849 L21.2251285,41.7852849 C19.7912184,41.7852849 18.9963466,41.0371599 18.9963466,39.5409094 L18.9963466,24.7654331 C18.9963466,23.2691832 19.7912184,22.5210742 21.2251285,22.5210742 C22.3635552,22.5210742 23.2173751,22.5210742 23.7865884,22.5210742 C24.2835483,22.5210742 25.2774681,22.1421831 25.2774681,21.0027327 C25.2774681,19.8632822 24.2862536,19.4194717 23.7906463,19.4194717 C23.1755027,19.4194717 22.2527875,19.4194717 21.0225004,19.4194717 C17.655962,19.4194717 15.8947441,21.1495038 15.8947441,24.5004652 L15.8947441,39.8214561 C15.8947441,43.1568425 17.655962,44.9024834 21.0225004,44.9024834 Z" id="Shape" fill-opacity="0.9" fill="#FFFFFF" fill-rule="nonzero"></path>
            </g>
        </g>
    </g>
</svg>