<?xml version="1.0" encoding="UTF-8"?>
<svg width="60px" height="60px" viewBox="0 0 60 60" version="1.1" xmlns="http://www.w3.org/2000/svg" xmlns:xlink="http://www.w3.org/1999/xlink">
    <!-- Generator: Sketch 60 (88103) - https://sketch.com -->
    <title>Group</title>
    <desc>Created with Sketch.</desc>
    <defs>
        <linearGradient x1="28.8244021%" y1="7.77647214%" x2="72.2542469%" y2="93.7484382%" id="linearGradient-1">
            <stop stop-color="#0F6199" offset="0.0607052365%"></stop>
            <stop stop-color="#0978C3" stop-opacity="0.854048295" offset="100%"></stop>
        </linearGradient>
    </defs>
    <g id="Page-1" stroke="none" stroke-width="1" fill="none" fill-rule="evenodd">
        <g id="Artboard" transform="translate(-775.000000, -1107.000000)">
            <g id="Group" transform="translate(775.000000, 1107.000000)">
                <circle id="Oval" fill="url(#linearGradient-1)" cx="30" cy="30" r="30"></circle>
                <path d="M36.99948,13.4998642 L37.359685,13.5027916 C40.2227948,13.5390698 42.6380297,13.8986573 44.3787075,15.6402495 C46.1919137,17.4366687 46.4887341,19.9654282 46.4999996,22.9872246 L46.4999996,36.8299331 C46.4999996,39.9321762 46.2281778,42.5083156 44.3787075,44.3587834 C42.6017655,46.1366838 40.1218672,46.4743549 37.1801595,46.4981047 L36.8176587,46.4995198 L23.1643312,46.4995198 C20.0818931,46.4995198 17.4708741,46.2092511 15.621441,44.3587834 C13.7719707,42.5083156 13.4999996,39.9321762 13.4999996,36.8299331 L13.4999996,22.9369784 C13.5112717,19.9835527 13.8082349,17.4544446 15.621441,15.6402495 C17.4023766,13.8583426 19.889529,13.5231627 22.7913963,13.5007789 L36.99948,13.4998642 Z M22.2582291,38.2709963 L17.781466,42.7507002 C19.368133,44.1231897 21.5300129,44.3473466 24.0559402,44.3473466 L29.6329996,44.3468642 L29.6323637,41.3257799 C26.7834651,41.2348799 24.2001624,40.0912925 22.2582291,38.2709963 Z M30.375662,41.325521 L30.3759996,44.3468642 L35.9283989,44.3473466 C38.4726281,44.3473466 40.6377393,44.1225855 42.2250626,42.745149 L37.7457565,38.2672586 C35.8051958,40.0880166 33.2233355,41.2326678 30.375662,41.325521 Z M18.6801728,30.375387 L15.6519996,30.3758642 L15.6521736,35.9390097 C15.6521736,38.4945208 15.8644123,40.6394753 17.2540239,42.2263391 L21.7330325,37.7455133 C19.9154371,35.8043456 18.7729118,33.2226634 18.6801728,30.375387 Z M44.3469996,30.3658642 L41.3200859,30.367357 C41.2292977,33.2158587 40.0878352,35.7989835 38.2707013,37.7415237 L42.7521965,42.2193697 C44.136324,40.6331974 44.3478264,38.4907816 44.3478264,35.9390097 L44.3469996,30.3658642 Z M25.5434266,34.9839854 L22.7841074,37.7456443 C24.5911296,39.4315455 26.9887005,40.4919761 29.6323494,40.5822775 L29.6302987,36.6772702 C28.0635143,36.5918126 26.640352,35.9664796 25.5434266,34.9839854 Z M30.3736918,36.6770513 L30.3756523,40.5820012 C33.0181064,40.4897668 35.4142651,39.4282629 37.2199303,37.7418753 L34.4585579,34.9822073 C33.3622957,35.9648905 31.939847,36.5906984 30.3736918,36.6770513 Z M23.3261087,30.3734158 L19.4232873,30.3753774 C19.5154028,33.0173024 20.5748161,35.4131648 22.2580982,37.2193482 L25.0182517,34.4585241 C24.0371268,33.3619323 23.4123625,31.9394798 23.3261087,30.3734158 Z M40.5769888,30.3673713 L36.6741101,30.3694231 C36.5887506,31.9361165 35.9644607,33.3592827 34.9835247,34.4565379 L37.7456667,37.2153063 C39.4284627,35.407766 40.4868039,33.0104914 40.5769888,30.3673713 Z M29.6279996,30.8958642 L26.0695393,34.4576739 C27.0306657,35.3066103 28.2684272,35.8492478 29.6302326,35.9329121 L29.6279996,30.8958642 Z M30.3709996,30.8958642 L30.3737549,35.9326658 C31.7349426,35.8481289 32.9720059,35.3050209 33.9324798,34.4558897 L30.3709996,30.8958642 Z M29.1019996,30.3708642 L24.0700885,30.3734789 C24.15452,31.7344548 24.6966309,32.9714126 25.5442764,33.9321245 L29.1019996,30.3708642 Z M35.9301577,30.3694893 L30.8959996,30.3708642 L34.457506,33.9301035 C35.3049568,32.9687391 35.8465976,31.7310831 35.9301577,30.3694893 Z M15.6521736,24.012712 L15.6519996,29.6328642 L18.6799058,29.6319421 C18.7706332,26.783338 19.9121098,24.2001157 21.7292987,22.2575166 L17.2479316,17.7797889 C15.8637916,19.3673207 15.6521736,21.520621 15.6521736,24.012712 Z M19.4229867,29.6323879 L23.325867,29.6300389 C23.4111173,28.0635488 24.0351568,26.6405276 25.0157811,25.5432791 L22.2551918,22.7828119 C20.5717447,24.5906228 19.5130195,26.9885342 19.4229867,29.6323879 Z M24.0697812,29.6305486 L29.1029996,29.6278642 L25.542494,26.0689368 C24.6948363,27.030536 24.1531379,28.2685617 24.0697812,29.6305486 Z M34.4557236,26.0669158 L30.8959996,29.6278642 L35.9299733,29.6265588 C35.8457448,28.2651898 35.3035761,27.0278624 34.4557236,26.0669158 Z M37.7410622,22.7787913 L34.9815706,25.5403176 C35.9628822,26.6370307 36.5877399,28.0597109 36.6739136,29.6260289 L40.5767367,29.6243536 C40.4847665,26.9817162 39.4249783,24.5852362 37.7410622,22.7787913 Z M42.7472572,17.7717676 L38.2669675,22.253527 C40.0846239,24.1947597 41.2271647,26.77655 41.3198365,29.6239396 L44.3469996,29.6228642 L44.3478264,24.0600436 C44.3478264,21.5052332 44.135821,19.3466139 42.7472572,17.7717676 Z M26.0675202,25.5431507 L29.6279996,29.1028642 L29.6262451,24.0663746 C28.2650574,24.1509114 27.0279941,24.6940195 26.0675202,25.5431507 Z M30.3697674,24.0661283 L30.3709996,29.1018642 L33.9304607,25.5413665 C32.9693343,24.6924301 31.7315728,24.1497925 30.3697674,24.0661283 Z M22.7790606,22.2581076 L25.5404502,25.0177224 C26.6368462,24.0345274 28.0596806,23.408368 29.6263082,23.321989 L29.6243477,19.4170391 C26.9814013,19.5092907 24.5848421,20.571173 22.7790606,22.2581076 Z M30.3676506,19.4167628 L30.3697013,23.3217702 C31.9364857,23.4072277 33.359648,24.0325607 34.4565734,25.0150549 L37.2158926,22.253396 C35.4088704,20.5674948 33.0112995,19.5070642 30.3676506,19.4167628 Z M29.6229996,15.6508642 L24.0243922,15.6516938 C21.5239988,15.6516938 19.3607666,15.8766193 17.7734636,17.2552684 L22.2532474,21.7327165 C24.1939206,19.9114155 26.7761773,18.7663884 29.624338,18.6735193 L29.6229996,15.6508642 Z M36.1075103,15.6520798 L30.3659996,15.6518642 L30.3676363,18.6732605 C33.2165349,18.7641604 35.7998376,19.9077478 37.7417709,21.728044 L42.2180225,17.24779 C40.6687608,15.9081625 38.5705487,15.6629032 36.1075103,15.6520798 Z" id="tabbar-template-copy" fill-opacity="0.900186" fill="#FFFFFF" fill-rule="nonzero"></path>
            </g>
        </g>
    </g>
</svg>