<?xml version="1.0" encoding="UTF-8"?>
<svg width="61px" height="60px" viewBox="0 0 61 60" version="1.1" xmlns="http://www.w3.org/2000/svg" xmlns:xlink="http://www.w3.org/1999/xlink">
    <!-- Generator: Sketch 60 (88103) - https://sketch.com -->
    <title>Group</title>
    <desc>Created with Sketch.</desc>
    <defs>
        <linearGradient x1="28.8244021%" y1="7.77647214%" x2="72.2542469%" y2="93.7484382%" id="linearGradient-1">
            <stop stop-color="#0F6199" offset="0.0607052365%"></stop>
            <stop stop-color="#0978C3" stop-opacity="0.854048295" offset="100%"></stop>
        </linearGradient>
    </defs>
    <g id="Page-1" stroke="none" stroke-width="1" fill="none" fill-rule="evenodd">
        <g id="Artboard" transform="translate(-1317.000000, -1107.000000)">
            <g id="Group" transform="translate(1317.500000, 1107.000000)">
                <circle id="Oval" fill="url(#linearGradient-1)" cx="30" cy="30" r="30"></circle>
                <path d="M17.6280878,42.1392638 L42.3575266,42.1392638 C45.4936466,42.1392638 47.1269746,40.5205138 47.1269746,37.4275446 L47.1269746,29.3337916 C47.1269746,27.7150563 46.8957986,27.0212915 46.1442546,26.0384827 L41.4035185,19.7224642 C39.7124705,17.4822474 38.8306865,16.8607362 36.2292609,16.8607362 L23.7706799,16.8607362 C21.1546615,16.8607362 20.2730255,17.4822474 18.5964519,19.7224642 L13.8413894,26.0384827 C13.1042606,27.0212915 12.8730254,27.7150563 12.8730254,29.3337916 L12.8730254,37.4275446 C12.8730254,40.5205138 14.506235,42.1392638 17.6280878,42.1392638 Z M29.9999704,33.250582 C27.803088,33.250582 26.4300624,31.5017548 26.4300624,29.6951188 L26.4300624,29.5795012 C26.4300624,28.9146556 26.0253711,28.2787291 25.2015439,28.2787291 L16.5007422,28.2787291 C15.9659886,28.2787291 15.8792606,27.8451187 16.1249702,27.4982363 L21.4003711,20.416229 C22.0073783,19.5779274 22.7733967,19.2599642 23.7562351,19.2599642 L36.2437057,19.2599642 C37.2120697,19.2599642 37.9780881,19.5779274 38.5995697,20.416229 L43.8606146,27.4982363 C44.1062946,27.8451187 44.0195666,28.2787291 43.4846946,28.2787291 L34.7839521,28.2787291 C33.9601249,28.2787291 33.5698784,28.9146556 33.5698784,29.5795012 L33.5698784,29.6951188 C33.5698784,31.5017548 32.1968528,33.250582 29.9999704,33.250582 Z M36.0558345,21.4134827 L23.9585511,21.4134827 C23.5538895,21.4134827 23.2503711,21.7314459 23.2503711,22.1216923 C23.2503711,22.5263835 23.5538895,22.8299019 23.9585511,22.8299019 L36.0558345,22.8299019 C36.4460513,22.8299019 36.7495697,22.5263835 36.7495697,22.1216923 C36.7495697,21.7314459 36.4460513,21.4134827 36.0558345,21.4134827 Z M37.9347241,24.6365379 L22.0652167,24.6365379 C21.6460511,24.6365379 21.3280879,24.9978651 21.3280879,25.3880819 C21.3280879,25.7927731 21.6460511,26.1252107 22.0652167,26.1252107 L37.9347241,26.1252107 C38.3538897,26.1252107 38.6718529,25.7927731 38.6718529,25.3880819 C38.6718529,24.9978651 38.3538897,24.6365379 37.9347241,24.6365379 Z" id="Shape" fill-opacity="0.9" fill="#FFFFFF" fill-rule="nonzero"></path>
            </g>
        </g>
    </g>
</svg>