<?xml version="1.0" encoding="UTF-8"?>
<svg width="60px" height="60px" viewBox="0 0 60 60" version="1.1" xmlns="http://www.w3.org/2000/svg" xmlns:xlink="http://www.w3.org/1999/xlink">
    <!-- Generator: Sketch 60 (88103) - https://sketch.com -->
    <title>Group</title>
    <desc>Created with Sketch.</desc>
    <defs>
        <linearGradient x1="28.8244021%" y1="7.77647214%" x2="72.2542469%" y2="93.7484382%" id="linearGradient-1">
            <stop stop-color="#0F6199" offset="0.0607052365%"></stop>
            <stop stop-color="#0978C3" stop-opacity="0.854048295" offset="100%"></stop>
        </linearGradient>
    </defs>
    <g id="Page-1" stroke="none" stroke-width="1" fill="none" fill-rule="evenodd">
        <g id="Artboard" transform="translate(-775.000000, -1356.000000)">
            <g id="Group" transform="translate(775.000000, 1356.000000)">
                <circle id="Oval" fill="url(#linearGradient-1)" cx="30" cy="29.9995355" r="30"></circle>
                <path d="M29.9358206,43.0178447 L29.9313282,43.0180052 C32.3207036,42.9354016 32.979823,42.0746345 33.8963972,42.1101888 C34.3144174,42.1502033 34.5629663,42.3615066 34.6420441,42.7440988 L34.6491678,42.7816585 L34.6485761,46.648838 C34.6316657,47.107659 34.2543752,47.4744278 33.7914213,47.4744278 C33.501944,47.4744278 33.2459594,47.3310289 33.090628,47.1113918 L33.0709437,47.0823167 L32.2763919,46.2543647 L30.669679,49.4283604 L30.6566691,49.4578503 L30.6376754,49.4960331 L30.6126979,49.5429087 C30.6080363,49.5514457 30.6031254,49.560345 30.5979652,49.5696064 L30.5634807,49.6145888 L30.5332993,49.6518457 C30.5192843,49.6685428 30.5068831,49.6823429 30.4960955,49.693246 C30.360541,49.8302517 30.1754998,49.9181981 29.9699866,49.9280707 L29.9017746,49.9280707 C29.6962614,49.9181981 29.5112202,49.8302517 29.3756657,49.693246 C29.3504947,49.6678055 29.3165381,49.6265923 29.273796,49.5696064 L29.2458266,49.5183843 L29.223841,49.4758551 C29.2143442,49.4567637 29.2070912,49.4409321 29.2020822,49.4283604 L27.5953693,46.2543647 L26.8008175,47.0823167 C26.647998,47.3182884 26.3824031,47.4744278 26.0803399,47.4744278 C25.617386,47.4744278 25.2400955,47.107659 25.2231851,46.648838 L25.2225935,42.7816585 C25.2929358,42.3753173 25.5438593,42.1514941 25.9753641,42.1101888 C26.8913482,42.0746574 27.5502089,42.9342937 29.9358206,43.0178447 Z M29.9993453,10.0710002 L30.169771,10.20138 C35.7083478,14.4783302 38.382118,20.4648949 38.1910816,28.161074 L38.1844157,28.3948149 L40.8707191,30.5509182 L40.9293485,30.6084742 C42.1682663,31.8390229 42.6492972,33.2415453 42.3724411,34.8160416 L42.3270486,35.0690498 C42.065085,36.5017198 41.6400775,38.3855357 41.0520259,40.7204975 L40.8707191,41.4345204 C40.3609455,42.4122325 39.5610578,42.6745868 38.4710559,42.2215832 L38.2990418,42.0815232 L38.1376138,41.948407 C37.7513057,41.6261897 37.1817574,41.1354905 36.4289966,40.4763033 L35.4377436,39.604404 L34.4049443,38.6900072 C33.4681956,39.6830475 31.8766355,40.3364796 30.0708242,40.3364796 L29.9291758,40.3364796 C28.1233645,40.3364796 26.5318044,39.6830475 25.5950557,38.6900072 L24.5622564,39.604404 L23.7018428,40.3616493 C22.8839322,41.0788605 22.270769,41.6077773 21.8623862,41.948407 L21.7009582,42.0815232 L21.5289441,42.2215832 C20.4389422,42.6745868 19.6390545,42.4122325 19.1292809,41.4345204 L18.9834528,40.8611366 L18.8438857,40.3050768 C18.2753994,38.0242525 17.8699571,36.1945741 17.6275589,34.8160416 C17.3507028,33.2415453 17.8317337,31.8390229 19.0706515,30.6084742 L19.1292809,30.5509182 L21.8155843,28.3948149 C21.5641587,20.5860101 24.235707,14.5215318 29.830229,10.20138 L29.9993453,10.0710002 Z M30.0006547,19.3749772 C28.0268201,19.3749772 26.4267111,20.9750862 26.4267111,22.9489207 C26.4267111,24.9227553 28.0268201,26.5228643 30.0006547,26.5228643 C31.9744892,26.5228643 33.5745982,24.9227553 33.5745982,22.9489207 C33.5745982,20.9750862 31.9744892,19.3749772 30.0006547,19.3749772 Z" id="Combined-Shape" fill-opacity="0.9" fill="#FFFFFF" transform="translate(30.000000, 29.999535) rotate(45.000000) translate(-30.000000, -29.999535) "></path>
            </g>
        </g>
    </g>
</svg>