<?xml version="1.0" encoding="UTF-8"?>
<svg width="298px" height="243px" viewBox="0 0 298 243" version="1.1" xmlns="http://www.w3.org/2000/svg" xmlns:xlink="http://www.w3.org/1999/xlink">
    <!-- Generator: Sketch 60 (88103) - https://sketch.com -->
    <title>path3611</title>
    <desc>Created with Sketch.</desc>
    <g id="Page-1" stroke="none" stroke-width="1" fill="none" fill-rule="evenodd">
        <g id="Twitter_Bird" fill="#000000" fill-rule="nonzero">
            <path d="M93.71877,242.18702 C206.17915,242.18702 267.67504,149.01937 267.67504,68.23077 C267.67504,65.58449 267.62114,62.95015 267.50244,60.32772 C279.44043,51.69756 289.8169,40.92773 298.00006,28.66788 C287.04547,33.53725 275.25648,36.81529 262.88935,38.29339 C275.51276,30.7241 285.20381,18.75035 289.77518,4.476 C277.96234,11.47907 264.88001,16.56897 250.95135,19.31655 C239.79412,7.43219 223.91056,-1.13686838e-13 206.32243,-1.13686838e-13 C172.55869,-1.13686838e-13 145.17817,27.38052 145.17817,61.13233 C145.17817,65.93017 145.71457,70.59691 146.76355,75.0729 C95.94809,72.51604 50.89002,48.18708 20.73809,11.19299 C15.48727,20.22844 12.45957,30.7241 12.45957,41.92305 C12.45957,63.13491 23.25323,81.86142 39.66723,92.81601 C29.63646,92.50609 20.2136,89.75253 11.97679,85.16925 C11.96779,85.42577 11.96779,85.67586 11.96779,85.95002 C11.96779,115.55959 33.04257,140.28192 61.01909,145.88437 C55.88152,147.28499 50.47574,148.03595 44.89713,148.03595 C40.96349,148.03595 37.13117,147.64879 33.40614,146.93335 C41.18997,171.22655 63.76071,188.90408 90.52139,189.39878 C69.59561,205.80085 43.23427,215.5694 14.58427,215.5694 C9.65529,215.5694 4.78593,215.28904 0,214.72306 C27.05868,232.06685 59.18936,242.18702 93.72193,242.18702" id="path3611"></path>
        </g>
    </g>
</svg>