<?xml version="1.0" encoding="UTF-8"?>
<svg width="800px" height="700px" viewBox="0 0 800 700" version="1.1" xmlns="http://www.w3.org/2000/svg" xmlns:xlink="http://www.w3.org/1999/xlink">
    <!-- Generator: Sketch 60 (88103) - https://sketch.com -->
    <title>white-icon</title>
    <desc>Created with Sketch.</desc>
    <g id="Icon-V3" stroke="none" stroke-width="1" fill="none" fill-rule="evenodd">
        <g id="icon-blue-gradient-bg" transform="translate(-112.000000, -136.000000)" fill="#FFFFFF">
            <path d="M512,262.724138 C618.967374,262.724138 687.819936,291.034057 729.623278,321.366113 C760.152252,343.51761 811.665044,384.003305 837.230437,453.45601 C887.077121,448.38777 912,473.208082 912,527.915517 C912,578.195881 890.947566,602.409497 848.842697,600.556366 C838.436905,676.968472 807.569833,726.403774 772.656129,755.114517 C729.623278,790.501916 659.541205,836 512,836 C364.458795,836 294.376722,790.501916 251.343871,755.114517 C216.430167,726.403774 185.563095,676.968472 175.158358,600.555144 C133.052434,602.409497 112,578.195881 112,527.915517 C112,473.208082 136.922879,448.38777 186.768638,453.454584 C212.334956,384.003305 263.847748,343.51761 294.376722,321.366113 C336.180064,291.034057 405.032626,262.724138 512,262.724138 Z M511.001248,309.069814 C421.600364,309.069814 364.054967,332.702875 329.116691,358.024011 C294.178414,383.345148 226.357054,437.363572 226.357054,542.868308 C226.357054,634.750606 257.184945,690.574938 293.150818,720.116264 C329.116691,749.65759 387.689684,787.639295 511.001248,787.639295 C634.312813,787.639295 692.885806,749.65759 728.851679,720.116264 C764.817552,690.574938 795.645443,634.750606 795.645443,542.868308 C795.645443,437.363572 727.824083,383.345148 692.885806,358.024011 C657.947529,332.702875 600.402133,309.069814 511.001248,309.069814 Z M559.255703,622.781609 C568.705835,622.781609 576.366681,630.442455 576.366681,639.892587 C576.366681,643.251578 575.37804,646.536278 573.523997,649.337233 L571.13483,652.946615 C561.495193,667.509489 545.512177,676.62875 528.070551,677.517348 C520.572672,677.899342 515.288265,678.095365 512.21733,678.105418 L511.973186,678.105825 C508.947455,678.105825 503.600074,677.910354 495.931043,677.519412 C478.490018,676.630326 462.507714,667.511157 452.868394,652.948763 L450.477805,649.337233 C445.261671,641.457072 447.421292,630.840427 455.301453,625.624293 C458.102408,623.77025 461.387108,622.781609 464.746099,622.781609 L559.255703,622.781609 Z M646.981273,470.055902 C671.251465,470.055902 690.926342,489.868589 690.926342,514.308776 C690.926342,538.748963 671.251465,558.561649 646.981273,558.561649 C622.711082,558.561649 603.036205,538.748963 603.036205,514.308776 C603.036205,489.868589 622.711082,470.055902 646.981273,470.055902 Z M377.018727,469.908046 C401.288918,469.908046 420.963795,489.720732 420.963795,514.16092 C420.963795,538.601107 401.288918,558.413793 377.018727,558.413793 C352.748535,558.413793 333.073658,538.601107 333.073658,514.16092 C333.073658,489.720732 352.748535,469.908046 377.018727,469.908046 Z M512,136 C539.579763,136 561.937578,158.514416 561.937578,186.287356 C561.937578,214.060296 539.579763,236.574713 512,236.574713 C484.420237,236.574713 462.062422,214.060296 462.062422,186.287356 C462.062422,158.514416 484.420237,136 512,136 Z" id="white-icon"></path>
        </g>
    </g>
</svg>